<svg width="16.933mm" height="16.933mm" version="1.1" viewBox="0 0 16.933 16.933" xmlns="http://www.w3.org/2000/svg">
  <g transform="translate(-102.13 -142.88)" stroke-width=".14668">
    <path d="m117.99 152.68-0.0154-0.014v-0.0421c-0.46056 0.028-0.90577 0.0421-1.3663 0.0701-0.18423 0.014-0.3531 0.014-0.53732 0.014-0.0307 0-0.0921 0.014-0.13817 0v0.028c-0.0154 0.15416-0.0461 0.30832-0.0921 0.44847-0.19957 0.70072-0.58337 1.3174-1.1514 1.8219-0.0154 0.014-0.0461 0.028-0.0614 0.0561 0.12282-0.0841 0.24564-0.18219 0.36845-0.26628 0.99789-0.71474 1.9958-1.4155 2.9936-2.1162z" fill="#ba88f0"/>
    <path d="m118.05 152.71-0.0154 0.014c-0.12282 0.0841-0.23028 0.16817-0.3531 0.23824-1.2282 0.86891-2.4563 1.7238-3.6845 2.6067-0.0307 0.028-0.0921-0.014-0.0461-0.0421 0.0307-0.028 0.0614-0.0421 0.0921-0.0701-0.0614 0.0421-0.13817 0.0841-0.19958 0.11211h0.0154c0.72154 0.16817 1.4584 0.33635 2.18 0.51854 0.0154 0 0.0154 0.014 0.0154 0.014 0.32239-0.33635 0.62944-0.6727 0.89042-1.0511 0.33775-0.46248 0.62943-0.967 0.84437-1.4855 0.12281-0.2803 0.21493-0.5746 0.29169-0.86891 0 0-0.0154 0.014-0.0307 0.014z" fill="#ff7b6c"/>
    <path d="m113.43 150.24h1.351c0-0.028 0.0154-0.0561 0.0461-0.0841 0.30704-0.49051 0.61408-0.99504 0.92112-1.4856-0.46056 0.3784-0.98253 0.71475-1.4892 1.0511-0.27634 0.16817-0.55267 0.33635-0.82901 0.51854z" fill="#ba88f0"/>
    <path d="m114.72 157.25c0-0.014-0.0154-0.014-0.0154-0.028-0.0154 0-0.0154 0-0.0307-0.014-0.23028-0.39242-0.46056-0.78482-0.69084-1.1632h-0.0153-0.0154-0.0307c-0.0154 0-0.0154 0-0.0154-0.014-0.12281 0.14014-0.23027 0.2943-0.35309 0.43445-0.56803 0.68671-1.1207 1.3734-1.6887 2.0601-0.30704 0.36438-0.59873 0.74278-0.90577 1.1072 0.0461-0.028 0.0768-0.0421 0.12282-0.0701 1.136-0.64467 2.2874-1.3034 3.3468-2.0601 0.10746-0.0701 0.19957-0.15416 0.29168-0.22423v-0.028z" fill="#ffd240"/>
    <path d="m113.92 155.65c0 0.0701 0.0154 0.14015 0.0307 0.21022 0.0154 0.014 0.0154 0.028 0.0307 0.0561 0 0 0.0154 0 0.0154 0.014l0.0154 0.014v0.028c0.21493 0.3784 0.44521 0.75679 0.66014 1.1352 0.0307-0.014 0.0768 0 0.0921 0.028 0.0154 0.028 0.0307 0.0421 0.0461 0.0701 0.41451-0.32234 0.81367-0.6727 1.1821-1.0371-0.6755-0.19621-1.3663-0.36438-2.0725-0.51854z" fill="#00d79b"/>
    <path d="m112.54 157.39-0.0154-0.014c-0.4145-0.39242-0.82901-0.78482-1.2435-1.1772-0.0307 0.014-0.0614 0.014-0.0921 0-0.0307-0.028-0.0461-0.0421-0.0768-0.0561h-0.0154c-0.0154 0-0.0154-0.014-0.0154-0.014-0.0154-0.014-0.0307-0.014-0.0461-0.028-0.0153-0.014-0.0307-0.014-0.0614-0.028h-0.23027v3.6998c0.0153 0 0.0307-0.014 0.0461-0.028 0.10746-0.14015 0.23028-0.26628 0.33774-0.40643 0.50662-0.61663 0.99789-1.2193 1.5045-1.8359-0.0307-0.0561-0.0614-0.0841-0.0921-0.11212z" fill="#ba88f0"/>
    <path d="m111.28 156.1c0.4145 0.39241 0.82901 0.79883 1.2589 1.1912 0.0307-0.014 0.0614-0.014 0.0921 0 0.0307 0.028 0.0614 0.0561 0.0921 0.0701 0.0307-0.0421 0.0614-0.0841 0.10746-0.12613 0.3531-0.42044 0.69084-0.85489 1.044-1.2753-0.0461-0.0841-0.0614-0.16818-0.0614-0.25227v-0.11212c-0.0921 0.0421-0.18422 0.0841-0.27633 0.12613-0.33775 0.14015-0.72155 0.19621-1.09 0.23826-0.39915 0.042-0.7983 0.0701-1.1975 0.0701 0 0.028 0.0154 0.0421 0.0307 0.0701v0z" fill="#39bddc"/>
    <path d="m115.97 152.64s0.0154 0.014 0.0154 0.028c0-0.014 0-0.028-0.0154-0.028 0.0154 0 0.0154 0 0 0z" fill="#ff7ac0"/>
    <path d="m118.27 151.88c0.0461-0.2943 0.0921-0.58861 0.13817-0.89693-0.0921 0.0561-0.18422 0.12613-0.27634 0.18219-0.72154 0.49051-1.4277 0.967-2.1493 1.4575h0.23028c0.18422 0 0.36845-0.014 0.55267-0.014 0.44521-0.014 0.89042-0.0421 1.3356-0.0701 0.0154 0 0.0154 0 0.0307 0.014 0.0461-0.22423 0.0921-0.44847 0.13817-0.6727z" fill="#ffd240"/>
    <path d="m116.53 146.61c0-0.014 0.0154-0.028 0.0307-0.042 0.0307-0.014 0.0614-0.014 0.0921-0.028v-0.028c0-0.028 0.0307-0.056 0.0614-0.056h0.0154c-0.0461-0.36438-0.0768-0.71475-0.10747-1.0791 0-0.014 0.0154-0.028 0.0307-0.028v-0.0701c-0.27634 0.014-0.53732 0.028-0.81366 0.014-0.15352 0-0.30704-0.014-0.46056-0.014 0 0.014 0.0154 0.014 0 0.028-0.0461 0.0701-0.0921 0.14015-0.12282 0.21022l-0.82901 1.3594h0.0461c0.0154 0 0.0307 0.014 0.0461 0.028h0.0153c0.67549-0.0701 1.3356-0.15416 1.9958-0.28029v-0.014z" fill="#39bddc"/>
    <path d="m116.66 146.69c-0.70619 0.12613-1.397 0.22423-2.1186 0.2943h-0.0153c-0.0154 0.028-0.0461 0.028-0.0768 0.028-0.0153 0-0.0461 0-0.0614-0.014 0.13817 0.0981 0.27634 0.1962 0.41451 0.30832 0.21492 0.16817 0.4145 0.35036 0.61408 0.54657 0.0154-0.014 0.0307-0.014 0.0461-0.028 0-0.014 0-0.014 0.0154-0.028 0.13817-0.12614 0.27633-0.26628 0.42986-0.39242 0.24563-0.23824 0.50661-0.46247 0.75224-0.70072z" fill="#ffd240"/>
    <path d="m118.51 145.07-1.7348 1.6257v0.014c0 0.028-0.0307 0.056-0.0614 0.056l-0.0307 0.028c-0.35309 0.33635-0.70619 0.6727-1.0746 0.99504 0.0307-0.014 0.0614 0 0.0768 0.028s0 0.0701-0.0307 0.0841c-0.0461 0.028-0.10747 0.0421-0.15352 0.0701 0.0154 0.014 0.0461 0.0421 0.0614 0.0561 0.10747 0.0981 0.21493 0.21021 0.29169 0.32233 0.0154 0.028 0.0461 0.0561 0.0461 0.0701h0.0153c0.41451-0.0981 0.82901-0.1822 1.2282-0.28029v-0.028c0.66014-1.0931 1.2589-2.2423 1.7501-3.4056l0.0154-0.014v-0.014c-0.12282 0.12613-0.26098 0.25226-0.39916 0.39241z" fill="#ff7b6c"/>
    <path d="m118.76 144.62c-0.10746 0.0841-0.21493 0.15416-0.33775 0.22424-0.26098 0.14014-0.55267 0.23824-0.84436 0.30831-0.26099 0.0561-0.53732 0.0981-0.81366 0.12614v0.0841c0 0.028-0.0307 0.056-0.0614 0.056h-0.0154c0.0307 0.37839 0.0614 0.7708 0.12282 1.1492 0.30703-0.28029 0.61408-0.5746 0.92112-0.85489 0.3838-0.36438 0.7676-0.71475 1.1514-1.0791 0.0154-0.014 0.0461-0.014 0.0461 0v-0.16817c-0.0307 0.0561-0.10746 0.11212-0.16887 0.15416z" fill="#ba88f0"/>
    <path d="m114.86 150.21s-0.0154 0.014 0 0v0.014h3.5463c-0.0768-0.0561-0.16887-0.11211-0.24563-0.16817-0.7369-0.51854-1.4738-1.0511-2.2107-1.5696-0.16887 0.2803-0.35309 0.56059-0.52197 0.84088-0.10746 0.18219-0.23028 0.36438-0.33775 0.54657-0.0921 0.11212-0.15351 0.23825-0.23027 0.33635z" fill="#00d79b"/>
    <path d="m115.66 152.21c0.0768 0.0561 0.16887 0.12613 0.23029 0.19621 0.0307 0.042 0.0461 0.11211 0.0614 0.16817 0.0154-0.014 0.0307-0.028 0.0614-0.0421-0.0153 0-0.0153 0-0.0153-0.014-0.13817-0.26627-0.29169-0.54657-0.42986-0.81285-0.19958-0.37839-0.39915-0.75678-0.59873-1.1352-0.0461-0.0841-0.10746-0.18219-0.13817-0.26628h-1.397c0.72155 0.63065 1.4738 1.2613 2.226 1.906z" fill="#39bddc"/>
    <path d="m112.34 152.44c0.0154-0.014 0.0154-0.028 0.0307-0.028-0.24563-0.15416-0.50662-0.26628-0.81366-0.28029-0.26098-0.014-0.52197-0.014-0.7676 0v0.0421c0 0.014 0 0.028-0.0154 0.042v1.4996c0.52198-0.42044 1.0439-0.84087 1.5659-1.2753z" fill="#ff7b6c"/>
    <path d="m113.13 152.99c-0.0307-0.014-0.0461-0.042-0.0768-0.056-0.18423-0.14015-0.35311-0.2803-0.53733-0.42044-0.0153-0.014-0.0307-0.028-0.0461-0.0421 0 0.014-0.0154 0.014-0.0154 0.028-0.0154 0.014-0.0154 0.028-0.0461 0.028h-0.0461l-0.0154-0.014c-0.50661 0.42044-1.0286 0.84087-1.5352 1.2473 0.0461 0.014 0.0768 0.042 0.12282 0.056 0.3838-0.014 0.7676-0.0421 1.136-0.11212 0.24563-0.056 0.50662-0.12612 0.72154-0.26627 0.16888-0.0981 0.30705-0.25226 0.35311-0.43445-0.0154 0-0.0154-0.014-0.0154-0.014z" fill="#00d79b"/>
    <path d="m108.96 152.4c0.32239 0.26628 0.66014 0.50453 0.99788 0.75679 0.15352 0.11212 0.30704 0.23825 0.46056 0.35036 0.0614 0.0561 0.13817 0.0981 0.19958 0.15416h0.0461c0.0154 0 0.0307 0.014 0.0461 0.014v-1.4856c-0.0307-0.014-0.0461-0.028-0.0461-0.0561v-0.042h-0.21493-1.7655c0.0461 0.14014 0.16887 0.22423 0.27633 0.30832z" fill="#ffd240"/>
    <path d="m110.58 153.8c-0.0307-0.014-0.0307-0.0421-0.0307-0.0701-0.0767-0.0701-0.16887-0.14015-0.26098-0.21022-0.3224-0.26628-0.67549-0.50453-0.99789-0.7708-0.15352-0.11212-0.30704-0.23825-0.46056-0.36438-0.0614-0.0561-0.12281-0.11212-0.18422-0.16818v0.014c-0.0153 0.014-0.0307 0.014-0.0461 0.014v1.5836h2.0418c-0.0154-0.014-0.0461-0.028-0.0614-0.028z" fill="#ba88f0"/>
    <path d="m112.91 146.36h0.0154z" fill="#ff7ac0"/>
    <path d="m108.43 146.09c0.0154-0.014 0.0307-0.014 0.0461-0.014s0.0307 0 0.0461 0.014v-1.3594-0.014c-0.0154 0-0.0154-0.014-0.0307-0.014-0.70619 0.2803-1.4431 0.44847-2.2107 0.51854l-0.0308 0.028c0.72155 0.28029 1.4278 0.57459 2.1339 0.8689 0.0307-0.014 0.0461-0.014 0.0461-0.028z" fill="#39bddc"/>
    <path d="m108.53 146.26c-0.0154-0.014-0.0461-0.0421-0.0614-0.0561h-0.0154c-0.7369-0.30832-1.4738-0.61664-2.2107-0.91095 0 0-0.0153 0-0.0153-0.014h-0.0154c-0.0154 0-0.0307 0.014-0.0461 0.014 0.18422 0.29431 0.3531 0.58861 0.53732 0.88292h0.0154c0.0154 0 0.0307 0 0.0307 0.014 0 0 0.0154 0 0.0154 0.014 0.0154 0.014 0.0154 0.014 0.0154 0.028v0.042c0.47591 0.014 0.96718 0.028 1.4431 0.028h0.30704z" fill="#00d79b"/>
    <path d="m106.63 146.27v-0.028c-0.18422-0.30832-0.36845-0.60263-0.55267-0.91095v-0.028h-0.0154c-0.0154 0-0.0307-0.014-0.0307-0.014 0-0.014-0.0154-0.014-0.0154-0.028-0.24563 0.014-0.49127 0.028-0.7369 0.028-0.12282 0-0.24563 0-0.3531-0.014 0.0154 0 0.0461 0.014 0.0307 0.0421-0.12281 0.37839-0.26099 0.74277-0.3838 1.1212 0 0.028-0.0307 0.028-0.0461 0.014 0.10747 0.0981 0.21493 0.1962 0.3224 0.29431l0.23028 0.21022c0.10746-0.26628 0.23028-0.51854 0.33774-0.78482 0-0.014 0.0154-0.014 0.0307-0.014 0.38381 0.0701 0.79831 0.0981 1.1821 0.11212z" fill="#ffd240"/>
    <path d="m112.65 144.76c0.0154-0.014 0.0307-0.028 0.0461-0.028s0.0307-0.014 0.0461-0.028l0.0154-0.014c-0.75225-0.32234-1.4431-0.7708-1.9804-1.3454v2.6768c0.0154 0 0.0307 0.014 0.0461 0.0421 0.0154 0.0421 0.0154 0.0701 0.0154 0.11212 0.59872-0.47649 1.1975-0.95299 1.8269-1.4015-0.0307 0-0.0154-0.014-0.0154-0.014z" fill="#00d79b"/>
    <path d="m112.86 146.33v-1.5836c-0.0461 0.0421-0.0921 0.0841-0.15352 0.0981-0.0154 0-0.0461 0-0.0614-0.014-0.58338 0.42044-1.1514 0.85489-1.7041 1.3034h0.0154c0.0307 0.028 0.0154 0.0561 0 0.0841-0.0307 0.028-0.0614 0.0701-0.0921 0.0981 0.27634 0 0.56803 0.014 0.84437 0.014 0.36845 0 0.75225 0.014 1.1207 0.014h0.0461c0 0.014-0.0153 0-0.0153-0.014z" fill="#ffd240"/>
    <path d="m108.6 146.27v0.028c0.70619 0 1.397 0.014 2.1032 0.028v-0.028c-0.0154 0-0.0154-0.014-0.0154-0.028v-0.0841c-0.0768-0.0561-0.15352-0.11211-0.23028-0.16817-0.61408-0.44847-1.2282-0.88292-1.8422-1.3314 0 0.014-0.0154 0.014-0.0307 0.028 0 0 0.0154 0.014 0.0154 0.028v1.4295l0.0154 0.014c0.0154 0.014 0.0154 0.028 0.0154 0.0421 0 0.014-0.0154 0.028-0.0154 0.042z" fill="#ba88f0"/>
    <path d="m108.61 149.47 0.0154-0.014s0.0153-0.014 0 0c-0.0154 0 0 0 0 0 0.0153-0.014 0.0153-0.014 0.0307-0.028 0.0461-0.028 0.0768-0.0561 0.12282-0.0981 0.0154-0.014 0.0307-0.014 0.0307-0.014 0.58338-0.43445 1.1668-0.88292 1.7501-1.3174h-0.13817c-0.61408-0.014-1.2282-0.028-1.8422-0.028v1.5136c0.0154 0 0.0154-0.014 0.0307-0.014z" fill="#ff7b6c"/>
    <path d="m110.65 148.09c-0.0307 0.014-0.0614 0.042-0.0768 0.056-0.0307 0.014-0.0614 0-0.0921-0.014-0.53732 0.40642-1.0593 0.79882-1.5966 1.2052 0.0154 0.028 0.0154 0.0561-0.0154 0.0701-0.0461 0.042-0.10747 0.0841-0.15352 0.12613 0.26099 0 0.53732-0.014 0.79831-0.014 0.3838-0.014 0.78295-0.014 1.1668-0.028v-1.3874c-0.0154 0-0.0154-0.014-0.0307-0.014z" fill="#39bddc"/>
    <path d="m118.48 150.29h-0.62943-2.7787-0.18423c0.0614 0.12613 0.13817 0.25227 0.19957 0.39241 0.3224 0.60263 0.62944 1.2053 0.95183 1.8079v0.014c0.0461-0.028 0.0921-0.0701 0.13818-0.0981 0.73689-0.50453 1.4738-1.009 2.226-1.5136h0.0154c0.0154-0.1962 0.0307-0.39241 0.0614-0.60262z" fill="#ff7b6c"/>
    <path d="m110.68 148.02v-0.042h-0.0614c0.0154 0.028 0.0461 0.042 0.0614 0.042z" fill="#ff7ac0"/>
    <path d="m107.83 146.37c-0.44521 0-0.89042-0.014-1.3356-0.0421-0.32239-0.014-0.67549-0.028-0.98253-0.11212 0.0154 0.0561 0.0307 0.0981 0.0461 0.15416 0.18422 0.44847 0.59873 0.84088 1.0746 1.0511 0.0154 0 0.0154 0.014 0.0154 0.028v0.014c0.0154 0.11212 0 0.25226 0 0.36438v6.8391c0 0.16818 0 0.33635-0.0614 0.50453-0.10746 0.32233-0.3838 0.51854-0.64478 0.72875 0.92112 0.014 1.8269 0.0421 2.748 0.0561 0.85972 0.014 1.7041 0.042 2.5638 0.056 0.50662 0 1.0286-0.0421 1.5352-0.12613 0.39916-0.0701 0.76761-0.1962 1.1207-0.37839 0.42986-0.23825 0.81366-0.54657 1.1207-0.89693 0.24563-0.2803 0.44521-0.58862 0.58338-0.92497 0.12282-0.28029 0.23028-0.58861 0.26099-0.89693v-0.0561c-0.0154-0.014-0.0307-0.0421 0-0.0561 0-0.0701-0.0154-0.14014-0.0768-0.1962-0.0154-0.014-0.0461-0.028-0.0614-0.0561-0.13817-0.11212-0.27634-0.22423-0.39915-0.33635-0.6755-0.5746-1.3663-1.1632-2.0418-1.7378-0.0154-0.014-0.0154-0.014 0-0.028l0.0154-0.014c0.33774-0.21022 0.69084-0.43445 1.0286-0.65868 0.33774-0.22424 0.67548-0.44847 0.98253-0.6727 0.15352-0.11212 0.29169-0.22424 0.44521-0.33635 0.0307-0.028 0.0768-0.0421 0.0921-0.0701 0-0.014 0.0154-0.028 0.0154-0.028 0-0.014 0-0.028-0.0154-0.0561-0.0614-0.11211-0.16887-0.21021-0.26099-0.2943-0.12281-0.12614-0.26098-0.25226-0.39915-0.36438-0.21493-0.1962-0.44521-0.37839-0.67549-0.54657-0.0614-0.0421-0.12282-0.0981-0.18422-0.14015-0.0154 0-0.0307-0.014-0.0307-0.028-0.39915-0.29431-0.82901-0.5746-1.351-0.60263-0.72155-0.028-1.4584-0.028-2.1954-0.028-0.99788-0.0981-1.9651-0.11211-2.9322-0.11211zm5.3579 6.699c-0.0614 0.22423-0.27634 0.39241-0.49127 0.50453-0.59872 0.2943-1.351 0.32233-2.0111 0.32233h-0.27633-1.873c-0.0154 0-0.0307-0.014-0.0307-0.028v-1.7658c0-0.014 0.0154-0.028 0.0307-0.028h2.3182c0.39915 0 0.81366-0.028 1.1975 0.11212 0.26099 0.0981 0.46056 0.26627 0.66014 0.42043 0.10746 0.0841 0.21493 0.16818 0.30704 0.23826 0.0461 0.028 0.12282 0.0701 0.15352 0.11211 0.0461 0.028 0.0307 0.0701 0.0154 0.11212zm-2.4256-5.1574v0.014c0.3224 0 0.66014 0.014 0.98254 0.014 0.23028 0 0.44521 0.014 0.67549 0.0841 0.0768 0.028 0.15352 0.056 0.24563 0.0701 0.23028 0.0701 0.47592 0.14014 0.7062 0.22423 0 0 0.0154 0 0.0154 0.014v0.028l-0.0154 0.014c-0.30705 0.18219-0.59873 0.36437-0.90577 0.53255-0.3531 0.21022-0.72155 0.43445-1.1054 0.58861-0.16887 0.0701-0.39916 0.0421-0.58338 0.0561v0.014c0 0.042-0.0768 0.042-0.0768 0v-0.014c-0.7062 0.014-1.4124 0.028-2.1339 0.0561-0.0154 0-0.0307-0.014-0.0307-0.028v-1.6397c0-0.014 0.0153-0.028 0.0307-0.028 0.27634 0 0.56803 0 0.84436 0.014 0.42986 0 0.85972 0.014 1.2896 0.014v-0.014c-0.0154-0.0561 0.0614-0.0561 0.0614-0.014z" fill="#fff"/>
    <path d="m112.54 148.14c-0.10746-0.0421-0.23027-0.0701-0.33774-0.0981-0.19958-0.0421-0.41451-0.028-0.61409-0.0421-0.26098 0-0.53732-0.014-0.7983-0.014 0.0461 0.0421 0.0768 0.0701 0.10747 0.12613 0.0154 0.014 0.0154 0.028 0 0.0561 0.3838 0.25226 0.78295 0.50452 1.1668 0.7708 0.0154-0.014 0.0307-0.014 0.0461-0.014s0.0307 0 0.0461 0.014 0.0461 0.0421 0.0614 0.056c0.3531-0.1962 0.7062-0.42043 1.0593-0.63065-0.26098-0.0701-0.49127-0.15416-0.7369-0.22423z" fill="#ba88f0"/>
    <path d="m112.05 149.02c-0.0153-0.014-0.0153-0.014-0.0153-0.028-0.39916-0.26628-0.79831-0.53255-1.2128-0.78482-0.0307 0-0.0461-0.014-0.0614-0.028l-0.0153-0.014v1.3314h0.0921c0.10746 0 0.23027 0 0.33774-0.014 0.0921 0 0.16887-0.0421 0.23028-0.0841 0.23028-0.11212 0.44521-0.22424 0.67549-0.35037z" fill="#ffd240"/>
    <path d="m115.27 145.32c-0.0921 0.0421-0.18423 0.0841-0.27634 0.12613-0.66013 0.30832-1.3203 0.60263-1.9804 0.91095 0.23028 0.028 0.42986 0.0841 0.62943 0.18219 0.24563 0.11211 0.46056 0.26627 0.66014 0.42044 0.0307-0.0561 0.0768-0.11212 0.10747-0.18219 0.30704-0.50453 0.61408-0.99504 0.90577-1.4996h-0.0461c0.0154 0.014 0.0154 0.0421 0 0.0421z" fill="#00d79b"/>
    <path d="m110.22 159.49c0.0768 0.0421 0.15353 0.0841 0.23029 0.12613 0.0461 0.028 0.0921 0.056 0.13816 0.0841-0.10746-0.12613-0.19958-0.23825-0.30704-0.36439-0.52197-0.61663-1.0439-1.2333-1.5813-1.8499-0.13817 0.29431-0.24564 0.60263-0.33775 0.91095 0.3224 0.1962 0.64479 0.39241 0.98254 0.5746 0.29169 0.18219 0.58337 0.36437 0.87506 0.51854z" fill="#00d79b"/>
    <path d="m106 148.12v2.2283c0 0.93898 0.0154 1.878 0.0154 2.8169 0 0.51854 0 1.0231 0.0154 1.5416 0 0.12614-0.0461 0.26628-0.0614 0.39242-0.0461 0.23824-0.0921 0.46247-0.13817 0.70072h0.0308c0.0153 0 0.0153 0 0.0307 0.014 0.0307-0.014 0.0461-0.0421 0.0768-0.0561 0.16888-0.14014 0.3531-0.26628 0.46056-0.46248 0.0921-0.15416 0.13817-0.33635 0.13817-0.51854v-0.50452-6.699c0-0.028-0.0154-0.0841 0-0.12613-0.0614-0.014-0.12282-0.0561-0.16887-0.0841-0.29169-0.16817-0.55267-0.39241-0.7369-0.65868 0.10747 0.35036 0.21493 0.70072 0.33774 1.0511 0.0154 0.11212 0 0.25226 0 0.36438z" fill="#ffd240"/>
    <path d="m105.37 156.12c0-0.014 0.0154-0.028 0.0307-0.0421 0.0153-0.014 0.0307-0.014 0.0461 0 0 0 0.0154 0 0.0154 0.014 0.0768-0.0701 0.13817-0.14014 0.21494-0.19621 0-0.014-0.0154-0.028 0-0.042 0-0.014 0.0153-0.028 0.0307-0.0421 0.0154-0.014 0.0307-0.014 0.0461 0 0.0461-0.26628 0.10747-0.54657 0.15352-0.81284 0.0307-0.14015 0.0461-0.22423 0.0461-0.35037v-0.32233c-0.0768 0.014-0.13817 0.028-0.21493 0.042-0.50662 0.0981-1.0286 0.18219-1.5352 0.2803-0.0154 0-0.0307-0.014-0.0461-0.028 0 0.014-0.0154 0.014-0.0154 0.028 0.23028 0.36438 0.49127 0.71474 0.79831 1.0371 0.13816 0.14014 0.27634 0.2943 0.42985 0.43445z" fill="#ff7b6c"/>
    <path d="m108.53 157.27c-0.36845-0.42043-0.72155-0.85489-1.09-1.2753-0.0307 0.056-0.0768 0.12613-0.10746 0.18219-0.0154 0.014-0.0307 0.028-0.0461 0.028-0.19958 0.32233-0.3838 0.64467-0.58338 0.967v0.056c0 0.014-0.0153 0.028-0.0153 0.028 0.33774 0.25227 0.67549 0.49051 1.0132 0.71475 0.19957 0.12613 0.39915 0.25226 0.59872 0.37839 0.0921-0.32233 0.21493-0.63065 0.3531-0.93898-0.0307-0.028-0.0768-0.0841-0.12281-0.14014z" fill="#ffd240"/>
    <path d="m107.21 156.12c0.0307-0.0561 0.0614-0.0981 0.0921-0.15416-0.49126-0.014-0.98253-0.014-1.4738-0.028h-0.0154-0.0154-0.0461-0.0154c-0.0768 0.0701-0.15352 0.15416-0.23029 0.22423 0 0.028-0.0154 0.042-0.0307 0.0701 0.35309 0.35036 0.7369 0.6727 1.1207 0.96701 0-0.014 0-0.028 0.0154-0.0421 0.0154-0.014 0.0307-0.014 0.0461-0.014l0.56802-0.95298c-0.0154-0.028-0.0154-0.0561-0.0154-0.0701z" fill="#39bddc"/>
    <path d="m105.45 150.65c0.13817 0.40642 0.29169 0.79883 0.42986 1.2052 0.0154 0 0.0307 0 0.0461-0.014h0.0154c0-0.61664 0-1.2193-0.0154-1.8359v-1.4715c-0.44521-0.0981-0.89042-0.1962-1.3356-0.29431 0.0461 0.14015 0.10746 0.2803 0.15352 0.43446 0.24563 0.65868 0.47592 1.3174 0.70619 1.976z" fill="#ff7b6c"/>
    <path d="m105.82 151.98c-0.0154 0-0.0307 0-0.0461-0.014 0 0 0-0.014-0.0154-0.014-0.0768 0.014-0.16888 0-0.19958 0-0.76761 0-1.5506-0.028-2.3182-0.0421l-0.0154 0.014c-0.0461 0.014-0.0921 0.028-0.13817 0.0421 0.0461 0.25226 0.10747 0.49051 0.16888 0.72875 0.18422 0.6727 0.46056 1.3034 0.84436 1.892 0.0614-0.0981 0.12281-0.1962 0.19958-0.2943 0.49126-0.72876 0.98253-1.4715 1.4738-2.2003 0 0 0-0.014 0.0153-0.014 0-0.014 0.0154-0.014 0.0154-0.028s0.0154-0.014 0.0307-0.014c0.0154-0.014 0.0307-0.028 0.0307-0.0421-0.0154-0.014-0.0307-0.014-0.0461-0.014z" fill="#ba88f0"/>
    <path d="m103.08 151.82c0.0307 0 0.0614-0.014 0.0768-0.014 0.0154-0.014 0.0307-0.014 0.0461 0 0.0154 0 0.0307 0.014 0.0461 0.028v0.014h0.16887c0.47591 0.014 0.93648 0.028 1.4124 0.028 0.21493 0 0.42986 0.014 0.64479 0.014h0.27632v-0.014c0.0154-0.014 0.0154-0.014 0.0307-0.014-0.0461-0.14015-0.0921-0.26628-0.13817-0.40642-0.23028-0.65869-0.47591-1.3174-0.70619-1.9761-0.13817-0.39241-0.27634-0.78481-0.41451-1.1632-0.21493 0.50452-0.44521 1.009-0.66014 1.5136-0.27633 0.61665-0.53732 1.2333-0.81366 1.8499 0 0.014-0.0154 0.014-0.0154 0.014 0.0307 0.028 0.0307 0.0841 0.0461 0.12614z" fill="#39bddc"/>
    <path d="m105.86 152.16c-0.0154 0.014-0.0307 0.014-0.0461 0h-0.0154c-0.0461 0.0701-0.10746 0.15416-0.15351 0.22424-0.49127 0.72875-0.96719 1.4575-1.4584 2.1863 0.0768-0.014 0.13817-0.028 0.21493-0.0421 0.50662-0.0981 1.0286-0.18219 1.5352-0.28029h0.0154c0-0.71475-0.0154-1.4295-0.0154-2.1582-0.0154 0.028-0.0461 0.042-0.0768 0.0701z" fill="#00d79b"/>
    <path d="m102.72 147.83c-0.0154 0-0.0154-0.014-0.0154-0.014-0.0154 0-0.0461 0-0.0614-0.014 0.0307 0.43445 0.0768 0.8689 0.12281 1.3034 0.0921 0.82686 0.15352 1.6537 0.29169 2.4666 0.0921-0.1962 0.16887-0.40642 0.26098-0.60262 0.39916-0.91095 0.79831-1.8359 1.1975-2.7469-0.59872-0.12613-1.2128-0.25226-1.7962-0.39241z" fill="#00d79b"/>
    <path d="m102.61 147.67h0.0154s0.0307 0.014 0.0461 0.014h0.0308c0.0307 0 0.0614 0.028 0.0614 0.0561v0.028c0.53732 0.12613 1.09 0.23825 1.6427 0.36438-0.3531-0.33635-0.69084-0.6727-1.0439-1.009-0.18422-0.18219-0.36845-0.36438-0.56803-0.54657-0.0921-0.0841-0.18422-0.16817-0.27633-0.26628 0-0.014-0.0154-0.014-0.0154-0.028 0.0307 0.46248 0.0768 0.92497 0.10747 1.3874z" fill="#ba88f0"/>
    <path d="m108.69 157.34h0.0461c0.0307-0.028 0.0461-0.0561 0.0768-0.0701 0.0153-0.014 0.0307-0.014 0.0461-0.014h0.0154c0.39916-0.37839 0.79831-0.77081 1.1975-1.1492v-0.0561c0-0.014 0.0154-0.028 0.0154-0.0421-0.59874-0.014-1.1821-0.028-1.7808-0.028-0.27634 0-0.53732-0.014-0.81366-0.014 0.12282 0.15416 0.24563 0.29431 0.3838 0.44847 0.27634 0.30832 0.53732 0.61664 0.81366 0.92496z" fill="#ff7b6c"/>
    <g fill="#39bddc">
      <path d="m110.25 156.03c-0.0154 0.028-0.0461 0.056-0.0614 0.0981-0.0154 0.028-0.0307 0.028-0.0614 0.028-0.39915 0.3784-0.79831 0.7708-1.2128 1.1492v0.014c0 0.014 0 0.028-0.0154 0.042s-0.0307 0.028-0.0307 0.0421c-0.0307 0.028-0.0461 0.0561-0.0768 0.0701 0.29169 0.33635 0.56802 0.6727 0.85971 1.009 0.3531 0.40642 0.69084 0.81284 1.0439 1.2193v-3.6718h-0.44521z"/>
      <path d="m118.5 150.11c0.0154-0.11211 0.0307-0.22423 0.0307-0.33635-0.41451-0.54656-0.84437-1.0931-1.2896-1.6117-0.4145 0.0981-0.81365 0.18219-1.2282 0.28029 0.0921 0.0561 0.16887 0.12613 0.26099 0.18219 0.7369 0.51854 1.4738 1.0511 2.226 1.5696v-0.0841z"/>
      <path d="m108.89 144.53c-0.0768 0.028-0.13818 0.0701-0.21493 0.0981 0.0767 0.0561 0.15351 0.11212 0.23028 0.16818 0.59873 0.43445 1.1821 0.85489 1.7808 1.2893v-2.8309l-0.0154-0.014h-0.0307c-0.47591 0.54657-1.0746 0.98102-1.7501 1.2893z"/>
    </g>
    <path d="m112.94 144.77v1.5416l0.27634-0.12613c0.66014-0.30832 1.3356-0.61664 1.9958-0.92496-0.35309-0.028-0.72154-0.0701-1.0593-0.14015-0.4145-0.0841-0.82901-0.1962-1.2128-0.35036z" fill="#ff7b6c"/>
    <path d="m102.66 144.63c-0.0154 0.014-0.0307 0.014-0.0461 0.014l0.39915 0.36438c0.49126 0.46248 0.99788 0.93898 1.4892 1.4015v-0.014c0.12281-0.37839 0.26099-0.74277 0.3838-1.1212 0-0.014 0.0154-0.028 0.0307-0.028-0.46056-0.014-0.93647-0.0841-1.3663-0.21022-0.24564-0.0701-0.49127-0.16818-0.72155-0.29431-0.0461-0.028-0.10746-0.0701-0.16887-0.11212z" fill="#39bddc"/>
    <path d="m103.68 145.75c-0.3838-0.36438-0.76759-0.71474-1.1514-1.0791-0.0154-0.014-0.0154-0.0421 0.0154-0.0561-0.0461-0.028-0.0921-0.0701-0.12282-0.0981 0.0154 0.25226 0.0154 0.50453 0.0307 0.74277 0.0153 0.28029 0.0307 0.56058 0.0461 0.84088 0.0154 0 0.0307 0.014 0.0307 0.042-0.0154 0.0981 0.18423 0.23825 0.24563 0.30833 0.0921 0.0841 0.16887 0.16817 0.26099 0.25226 0.16887 0.15416 0.32239 0.30832 0.49126 0.47649 0.33775 0.32234 0.66014 0.64467 0.99789 0.96701v0.014h0.0154l0.0614-0.15415c0.15352-0.33635 0.29169-0.6727 0.44521-0.99504-0.46056-0.42044-0.90577-0.84087-1.3663-1.2613z" fill="#ff7b6c"/>
    <path d="m118.93 144.86c-0.47591 1.1212-1.0439 2.2003-1.6734 3.2514 0.49127-0.11212 0.99788-0.22423 1.4892-0.33635 0.0768-0.96701 0.13816-1.948 0.18422-2.915z" fill="#00d79b"/>
    <path d="m118.7 148.25c0.0154-0.14014 0.0307-0.26627 0.0307-0.40642-0.47591 0.11212-0.95183 0.21022-1.4124 0.32234 0.42986 0.49051 0.84437 1.009 1.2282 1.5276 0.0614-0.49051 0.10747-0.96701 0.15352-1.4435z" fill="#ffd240"/>
    <path d="m104.6 148.18c0.44521 0.0981 0.89042 0.19621 1.3356 0.29431 0-0.21022 0.0154-0.42044 0-0.61664-0.13817-0.12614-0.27634-0.25226-0.41451-0.39241-0.13816-0.14015-0.29169-0.26628-0.42985-0.40642-0.16888 0.37839-0.33775 0.74277-0.49127 1.1212z" fill="#39bddc"/>
    <path d="m105.89 147.65c-0.13816-0.42044-0.27634-0.84088-0.42985-1.2613-0.0154-0.0421-0.0307-0.0701-0.0461-0.11212-0.0768 0.1962-0.16888 0.39241-0.24564 0.58861-0.0154 0.0421-0.0461 0.0981-0.0614 0.14015 0.26098 0.23825 0.53732 0.49051 0.7983 0.72875 0-0.028-0.0154-0.056-0.0154-0.0841z" fill="#ba88f0"/>
    <g fill="#fff">
      <path d="m110.84 159.8v-0.0421c0-0.14014-0.23028-0.14014-0.23028 0v0.0701c0 0.14014 0.23028 0.14014 0.23028 0v-3.7839c0-0.14015-0.23028-0.14015-0.23028 0v3.7839c0 0.14014 0.23028 0.14014 0.23028 0v-0.0701c0-0.14014-0.23028-0.14014-0.23028 0v0.0421c0 0.14014 0.23028 0.14014 0.23028 0z"/>
      <path d="m110.84 153.74v-1.5977c0-0.14014-0.23028-0.14014-0.23028 0v1.5977c0 0.14014 0.23028 0.14014 0.23028 0z"/>
      <path d="m110.84 149.57v-1.6537c0-0.14015-0.23028-0.14015-0.23028 0v1.6537c0 0.14014 0.23028 0.14014 0.23028 0z"/>
      <path d="m110.84 146.27v-3.0272c0-0.14015-0.23028-0.14015-0.23028 0v3.0272c0 0.14015 0.23028 0.14015 0.23028 0z"/>
      <path d="m116.1 152.45c-0.39915-0.75679-0.7983-1.5136-1.1975-2.2844v0.11212c0.36845-0.60263 0.75225-1.1912 1.1207-1.7939-0.0614 0.014-0.12281 0.014-0.18422 0.028 0.85971 0.60263 1.7194 1.2193 2.5638 1.8219 0.0307-0.0561 0.0614-0.12613 0.0768-0.18219h-4.5288-0.64479c-0.15352 0-0.15352 0.21022 0 0.21022h5.1736c0.0921 0 0.16888-0.12613 0.0768-0.18219-0.85971-0.60263-1.7194-1.2193-2.5638-1.8219-0.0614-0.042-0.13817-0.042-0.18422 0.028-0.35311 0.5746-0.72156 1.1492-1.0746 1.7238-0.0461 0.0701-0.0614 0.11212-0.0307 0.18219 0.0461 0.0981 0.10746 0.19621 0.15352 0.29431 0.19958 0.37839 0.39916 0.75678 0.59873 1.1492 0.13817 0.28028 0.29169 0.54656 0.42986 0.82686 0.0768 0.11211 0.27634 0.014 0.21493-0.11212z"/>
      <path d="m105.89 155.87c0.0461-0.25226 0.0921-0.49052 0.13817-0.74278 0.0307-0.14014 0.0614-0.28029 0.0768-0.40642 0.0154-0.50453 0-1.009-0.0154-1.5136 0-0.93898-0.0154-1.878-0.0154-2.831v-1.5136-0.72876c0-0.12613 0.0154-0.26628-0.0154-0.39241-0.15352-0.53255-0.33774-1.0651-0.50661-1.5977-0.0307-0.11211-0.18423-0.0981-0.21493 0-0.7062 1.5977-1.4124 3.2093-2.1032 4.807-0.10747 0.22423-0.19958 0.44847-0.30705 0.68671-0.0614 0.12613 0.16888 0.18219 0.21493 0.0561 0.7062-1.5977 1.4124-3.2093 2.1032-4.807 0.10746-0.22423 0.19957-0.44846 0.30704-0.68671h-0.21493c0.15352 0.49051 0.30704 0.98102 0.46056 1.4715 0.0921 0.28029 0.0461 0.56058 0.0461 0.85489v1.4996c0 1.5416 0.0154 3.0832 0.0307 4.6108v0.12614 0.028c-0.0153 0.0561-0.0307 0.12613-0.0307 0.18219-0.0614 0.28029-0.10747 0.56058-0.16887 0.84087-0.0307 0.14015 0.19957 0.19621 0.21492 0.0561z"/>
      <path d="m113.02 146.33v-1.5977c0-0.14015-0.23028-0.14015-0.23028 0v1.5977c0 0.14014 0.23028 0.14014 0.23028 0z"/>
      <path d="m114.41 147.07c0.30704-0.50452 0.61408-0.99503 0.90577-1.4996 0.0461-0.0701 0.0921-0.14014 0.12282-0.21021 0.0768-0.11212-0.12282-0.22424-0.19958-0.11212-0.30704 0.50452-0.61409 0.99503-0.90577 1.4996-0.0461 0.0701-0.0921 0.14014-0.12282 0.21022-0.0768 0.12613 0.12282 0.22423 0.19958 0.11211z"/>
      <path d="m102.47 144.72c0.99789 0.93898 1.9958 1.8639 2.9937 2.8029 0.13816 0.12613 0.27633 0.26628 0.4145 0.39241 0.10746 0.0981 0.26099-0.0561 0.16888-0.15416-0.99789-0.93898-1.9958-1.8639-2.9937-2.8029-0.13816-0.12613-0.27634-0.26627-0.4145-0.39241-0.10747-0.0841-0.26099 0.0561-0.16888 0.15416z"/>
      <path d="m105.97 148.4c-1.0746-0.23824-2.1493-0.46247-3.2239-0.70072-0.13817-0.028-0.19957 0.16817-0.0614 0.1962 1.0746 0.23825 2.1493 0.46248 3.2239 0.70073 0.13818 0.0421 0.19958-0.16817 0.0614-0.19621z"/>
      <path d="m108.69 146.33v-1.5977c0-0.14015-0.23029-0.14015-0.23029 0v1.5977c0 0.14014 0.23029 0.14014 0.23029 0z"/>
      <path d="m106.78 146.19c-0.18422-0.30832-0.3838-0.63065-0.56802-0.93897-0.0768-0.11212-0.27634-0.014-0.19958 0.11212 0.18422 0.30831 0.3838 0.63065 0.56803 0.93897 0.0768 0.11212 0.27633 0 0.19957-0.11212z"/>
      <path d="m104.57 148.09c-0.33775-0.32234-0.66014-0.64467-0.99789-0.96701-0.16887-0.15416-0.32239-0.30832-0.49126-0.4765-0.0921-0.0841-0.16887-0.16817-0.26099-0.25226-0.0461-0.0421-0.0768-0.0841-0.12282-0.11211-0.0154-0.014-0.10746-0.0841-0.10746-0.11212 0.0307-0.12613-0.19958-0.18219-0.21493-0.0561-0.0153 0.0981 0.0154 0.16818 0.0921 0.23825 0.0921 0.0841 0.18423 0.18219 0.27634 0.26628 0.18422 0.18218 0.36845 0.36437 0.56803 0.54656 0.36844 0.35037 0.73689 0.71475 1.1053 1.0651 0.0921 0.11212 0.26099-0.0421 0.15353-0.14014z"/>
      <path d="m104.24 154.7c0.50662-0.0981 1.0286-0.18219 1.5352-0.28029 0.0768-0.014 0.15352-0.028 0.21492-0.0421 0.13818-0.028 0.0768-0.22423-0.0614-0.1962-0.50662 0.0981-1.0286 0.18219-1.5352 0.28029-0.0768 0.014-0.15352 0.028-0.21493 0.0421-0.15352 0.014-0.0921 0.22423 0.0614 0.1962z"/>
      <path d="m107.38 156.04c0.95183 1.1212 1.9037 2.2423 2.8555 3.3635 0.13817 0.15416 0.27633 0.32234 0.4145 0.4765 0.0921 0.11211 0.24564-0.0421 0.16888-0.15416-0.95183-1.1212-1.9037-2.2423-2.8555-3.3635-0.13817-0.15416-0.27633-0.32234-0.41451-0.4765-0.10746-0.11211-0.26098 0.0421-0.16887 0.15416z"/>
      <path d="m108.89 157.43c0.4452-0.42043 0.87506-0.84087 1.3203-1.2473 0.10746-0.0981-0.0614-0.25227-0.16887-0.15416-0.44521 0.42044-0.87507 0.84087-1.3203 1.2473-0.0921 0.11212 0.0614 0.25227 0.16888 0.15416z"/>
      <path d="m106.77 157.23c0.21493-0.35036 0.4145-0.70073 0.62944-1.0511 0.0767-0.11212-0.12282-0.22423-0.19958-0.11212-0.21493 0.35036-0.41451 0.70073-0.62944 1.0511-0.0614 0.12613 0.13817 0.23825 0.19958 0.11212z"/>
      <path d="m113.82 155.91c-0.92112 1.1212-1.8269 2.2423-2.748 3.3635-0.12282 0.15416-0.26099 0.32233-0.38381 0.47649-0.0921 0.11212 0.10747 0.21022 0.19958 0.11212 0.92113-1.1212 1.8269-2.2423 2.748-3.3635 0.12282-0.15416 0.26098-0.32233 0.3838-0.47649 0.0921-0.12614-0.10746-0.22424-0.19958-0.11212z"/>
      <path d="m112.65 157.29c-0.44521-0.42044-0.87507-0.84087-1.3203-1.2473-0.10746-0.0981-0.26098 0.0561-0.16887 0.15416 0.44521 0.42044 0.87507 0.84088 1.3203 1.2473 0.10746 0.0841 0.27634-0.0561 0.16887-0.15416z"/>
      <path d="m114.8 157.13c-0.29169-0.49051-0.58338-0.98102-0.85972-1.4715-0.0768-0.11212-0.27633-0.014-0.19957 0.11212 0.29169 0.4905 0.58338 0.98101 0.85971 1.4715 0.0768 0.11212 0.26099 0 0.19958-0.11211z"/>
      <path d="m103.13 151.96c0.81366 0.028 1.6427 0.0561 2.4563 0.0561 0.10746 0 0.3838 0.028 0.33775-0.14015-0.0307-0.12613-0.26099-0.0701-0.21493 0.0561 0-0.028 0.0154-0.0561 0.0154-0.0841 0.0154-0.014 0.0614-0.0421 0.0614-0.0421s0.0307 0 0 0h-0.0614-0.21493c-0.21492 0-0.42985 0-0.64478-0.014-0.47591-0.014-0.93648-0.014-1.4124-0.028-0.10747 0-0.21493 0-0.3224-0.014-0.15351 0-0.15351 0.21022 0 0.21022z"/>
      <path d="m110.91 146.29c0.61408-0.50453 1.2435-0.98103 1.8883-1.4575 0.12282-0.0841-0.0461-0.23825-0.16887-0.15416-0.64479 0.46248-1.2742 0.95299-1.8883 1.4575-0.10747 0.0981 0.0614 0.23826 0.16887 0.15417z"/>
      <path d="m106.19 145.36c0.75225 0.2943 1.4892 0.58861 2.2107 0.91094 0.13817 0.0561 0.24563-0.12613 0.12282-0.18219-0.7369-0.30832-1.4738-0.61664-2.2107-0.91094-0.13817-0.0421-0.24564 0.12612-0.12282 0.18219z"/>
      <path d="m108.53 144.72c0.61408 0.44847 1.2435 0.89694 1.8576 1.3454 0.0921 0.0561 0.16888 0.12613 0.26099 0.18219 0.10746 0.0841 0.27634-0.0701 0.16888-0.15416-0.61409-0.44847-1.2435-0.89693-1.8576-1.3454-0.0921-0.056-0.16888-0.12613-0.26099-0.18219-0.12282-0.0841-0.29169 0.0701-0.16887 0.15416z"/>
      <path d="m113.02 146.44c0.67549-0.30833 1.351-0.61665 2.0111-0.92496 0.0921-0.0421 0.18422-0.0841 0.27634-0.12614 0.13817-0.0561 0.0154-0.23825-0.12282-0.18219-0.67549 0.30833-1.351 0.61664-2.0111 0.92496-0.0921 0.0421-0.18423 0.0841-0.27634 0.12614-0.13816 0.0701-0.0154 0.25226 0.12282 0.18219z"/>
      <path d="m104.44 148.25c0.3838 1.0791 0.7676 2.1442 1.1514 3.2234 0.0614 0.15416 0.10746 0.30832 0.16888 0.44847 0.0461 0.12613 0.26098 0.0701 0.21492-0.0561-0.3838-1.0791-0.7676-2.1442-1.1514-3.2234-0.0614-0.15417-0.10747-0.30833-0.16887-0.44847-0.0307-0.12614-0.26099-0.0701-0.21493 0.056z"/>
      <path d="m104.22 154.67c0.50662-0.74277 0.99788-1.4996 1.5045-2.2423 0.0768-0.11212 0.13817-0.21022 0.21493-0.32234 0.0768-0.11211-0.12282-0.22423-0.19958-0.11211-0.50662 0.74277-0.99788 1.4996-1.5045 2.2423-0.0768 0.11212-0.13817 0.21022-0.21493 0.32233-0.0768 0.11212 0.12282 0.22424 0.19958 0.11212z"/>
      <path d="m105.53 156.22c0.10747-0.0981 0.21493-0.21022 0.3224-0.30832 0.0461-0.0421 0.0461-0.11212 0-0.15416-0.0461-0.0421-0.12282-0.0421-0.16887 0-0.10747 0.0981-0.21493 0.21022-0.3224 0.30832-0.0461 0.0421-0.0461 0.11212 0 0.15416 0.0614 0.0421 0.12282 0.0421 0.16887 0z"/>
      <path d="m108.44 158.44c0.0921-0.33635 0.21492-0.65868 0.36845-0.967 0.0307-0.0561-0.0307-0.11212-0.0768-0.12613-0.0614-0.014-0.12281 0.014-0.13816 0.0701-0.13818 0.32233-0.26099 0.64467-0.36845 0.96701-0.0461 0.12613 0.18422 0.18219 0.21493 0.056z"/>
      <path d="m113.82 155.7c0.72155 0.16818 1.4584 0.33635 2.18 0.51854 0.13817 0.0421 0.19957-0.16818 0.0614-0.1962-0.72155-0.18219-1.4431-0.35037-2.18-0.51854-0.13817-0.0421-0.19958 0.15416-0.0614 0.1962z"/>
      <path d="m114.06 155.62c1.2128-0.86891 2.441-1.7378 3.6691-2.5927 0.12282-0.0841 0.23028-0.16817 0.3531-0.23824 0.12282-0.0841 0-0.26628-0.12282-0.18219-1.0132 0.71474-2.0265 1.4155-3.0244 2.1302-0.3531 0.23825-0.69084 0.49051-1.0286 0.74278-0.12282 0.0701 0.0461 0.22423 0.15352 0.14015z"/>
      <path d="m108.73 149.57c0.64479-0.49052 1.3049-0.98103 1.9497-1.4715-0.0461 0-0.0921 0.014-0.13816 0.014 0.50661 0.33635 1.0132 0.65869 1.5198 0.99504 0.12282 0.0841 0.23028-0.0981 0.12282-0.18219-0.50662-0.33635-1.0132-0.65869-1.5199-0.99504-0.0461-0.028-0.10746-0.014-0.13816 0.014-0.64479 0.49051-1.3049 0.98102-1.9497 1.4715-0.12282 0.0841 0.0307 0.23825 0.15352 0.15416z"/>
      <path d="m110.85 153.81c0.52197-0.42043 1.0439-0.85489 1.5659-1.2753 0.10746-0.0841-0.0461-0.23825-0.16888-0.15416-0.52196 0.42043-1.0439 0.85489-1.5659 1.2753-0.10746 0.0981 0.0614 0.23825 0.16888 0.15416z"/>
      <path d="m110.73 153.71c-0.0768-0.0841-0.18422-0.16817-0.27633-0.23825-0.15353-0.12613-0.30705-0.23824-0.46057-0.35036-0.33774-0.25226-0.67549-0.50453-0.99788-0.75679-0.0614-0.0561-0.13817-0.11211-0.19958-0.16817-0.0307-0.028-0.0461-0.0421-0.0768-0.0701-0.0154-0.014-0.0154-0.014-0.0307-0.028l-0.0154-0.014c-0.0921-0.11212-0.29169 0-0.19957 0.11211 0.0768 0.0981 0.18422 0.18219 0.27633 0.26628 0.15353 0.12613 0.30705 0.23824 0.46056 0.36438 0.33775 0.25226 0.6755 0.50452 0.99789 0.7708 0.12282 0.0981 0.24563 0.18219 0.33775 0.2943 0.12281 0.0701 0.29169-0.0841 0.18422-0.18219z"/>
      <path d="m104.8 145.26c-0.12282 0.37839-0.26099 0.74277-0.38381 1.1212-0.0461 0.12613 0.18423 0.18219 0.21493 0.0561 0.12282-0.3784 0.26099-0.74277 0.38381-1.1212 0.0614-0.12613-0.16887-0.18219-0.21493-0.0561z"/>
      <path d="m114.54 147.07c0.75225-0.0701 1.4892-0.18219 2.2107-0.32233 0.13817-0.028 0.0768-0.22424-0.0614-0.19621-0.70619 0.14015-1.4277 0.23825-2.1493 0.30832-0.15352 0.014-0.15352 0.22424 0 0.21022z"/>
      <path d="m118.84 144.58c-0.99788 0.93898-1.9958 1.8639-2.9936 2.8029-0.13817 0.12613-0.27634 0.26628-0.41451 0.39241-0.10746 0.0981 0.0614 0.25226 0.16888 0.15416 0.99788-0.93898 1.9958-1.8639 2.9936-2.8029 0.13818-0.12613 0.27634-0.26627 0.41451-0.3924 0.0921-0.11212-0.0768-0.25227-0.16887-0.15416z"/>
      <path d="m115.93 148.56c0.95183-0.22424 1.9037-0.43445 2.8555-0.65869 0.13817-0.028 0.0768-0.23825-0.0614-0.1962-0.95183 0.22423-1.9037 0.43445-2.8555 0.65868-0.13817 0.014-0.0768 0.22423 0.0614 0.19621z"/>
      <path d="m118.36 150.84c-0.7369 0.50453-1.4738 1.009-2.226 1.4996-0.10747 0.0701-0.21493 0.14015-0.30705 0.21022-0.12281 0.0841 0 0.26628 0.12282 0.18219 0.7369-0.50452 1.4738-1.009 2.226-1.4996 0.10747-0.0701 0.21493-0.14015 0.30704-0.21022 0.10746-0.0701 0-0.25226-0.12281-0.18219z"/>
      <path d="m118.1 152.47c-0.44521 0.028-0.89042 0.0421-1.3356 0.0701-0.18422 0.014-0.36845 0.014-0.55267 0.014h-0.16888-0.0614-0.0154c0.0307-0.014 0.0768 0.0421 0.0768 0.0421 0 0.028 0.0154 0.0561 0.0154 0.0841 0.0307-0.12614-0.19958-0.18219-0.21493-0.0561-0.0307 0.14015 0.13817 0.14015 0.24563 0.14015 0.18423 0 0.3531-0.014 0.53732-0.014 0.49127-0.014 0.98253-0.0421 1.4892-0.0701 0.12281 0 0.12281-0.21023-0.0154-0.21023z"/>
      <path d="m118.85 144.68c-0.49126 1.1632-1.0746 2.2984-1.7348 3.3915-0.0768 0.11212 0.12282 0.22424 0.19957 0.11212 0.6755-1.1072 1.2589-2.2563 1.7655-3.4336 0.0461-0.14014-0.18422-0.1962-0.23028-0.0701z"/>
      <path d="m117.18 148.22c0.46056 0.51853 0.89042 1.0511 1.2896 1.6117 0.0768 0.11212 0.27634 0 0.19958-0.11211-0.41451-0.56059-0.85972-1.1212-1.3356-1.6537-0.0921-0.0981-0.24563 0.0561-0.15352 0.15417z"/>
      <path d="m116.9 146.61c-0.0614-0.40642-0.0921-0.81285-0.12282-1.2193-0.0154-0.14014-0.24563-0.14014-0.23027 0 0.0307 0.40642 0.0768 0.81285 0.12281 1.2193 0.0154 0.0561 0.0461 0.11212 0.12282 0.11212 0.0461-0.014 0.12281-0.0561 0.10746-0.11212z"/>
    </g>
    <path d="m110.56 143.32c0.89042 1.0371 2.226 1.6817 3.6231 1.948 1.1361 0.22423 2.4103 0.26628 3.5463-0.014 0.29169-0.0841 0.59873-0.18219 0.85971-0.33635 0.12282-0.0701 0.24564-0.16818 0.35311-0.26628 0.0768-0.0701 0.19957-0.16818 0.21492-0.28029 0-0.11212-0.15352-0.21022-0.26098-0.14015-0.0307 0.028-0.0768 0.0561-0.0921 0.0981-0.0461 0.0841-0.0154 0.21022 0.10746 0.23825 0.0768 0.014 0.12282 0 0.18423-0.0421-0.0921-0.042-0.16888-0.0841-0.26099-0.14015-0.0461 1.2613-0.13817 2.5226-0.24564 3.7839-0.10746 1.2053-0.21492 2.4385-0.42985 3.6298-0.19958 1.1352-0.58338 2.1863-1.2896 3.1533-0.6755 0.92496-1.5506 1.7238-2.487 2.4245-0.58338 0.42044-1.1821 0.81284-1.8115 1.1772-0.64479 0.3784-1.2742 0.75679-1.9344 1.1072h0.16887c-0.58338-0.30833-1.1514-0.65869-1.7348-0.99504-0.55267-0.32234-1.09-0.64467-1.612-0.99504-0.99788-0.68671-1.9344-1.4715-2.6866-2.3965-0.7369-0.91094-1.2282-1.934-1.4738-3.0552-0.26098-1.1772-0.35309-2.3965-0.46056-3.5877-0.13817-1.4295-0.24563-2.873-0.29168-4.3025-0.0921 0.0421-0.16888 0.0841-0.26099 0.14014 0.0614 0.0421 0.10746 0.0561 0.18422 0.0421 0.12282-0.014 0.13817-0.15416 0.10747-0.23825-0.0154-0.0421-0.0614-0.0701-0.0921-0.0981-0.10746-0.0701-0.26098 0.028-0.26098 0.14014 0.0154 0.18219 0.30704 0.3784 0.46056 0.4765 0.21493 0.15416 0.47592 0.25226 0.7369 0.33635 0.56803 0.18219 1.1821 0.23825 1.7808 0.25226 1.2742 0.028 2.5792-0.1962 3.7306-0.72876 0.72155-0.33635 1.3663-0.79883 1.873-1.3734-0.0921-0.014-0.18422-0.028-0.27633-0.028l0.0154 0.014c0.13817 0.15416 0.42986 0 0.29169-0.15417l-0.0154-0.014c-0.0614-0.0701-0.19958-0.12613-0.27634-0.028-0.82901 0.95299-2.0418 1.5556-3.3314 1.8219-1.0439 0.22424-2.1953 0.2803-3.2393 0.0561-0.27633-0.0561-0.55267-0.14015-0.81365-0.25227-0.12282-0.0561-0.24563-0.12613-0.3531-0.21022-0.0461-0.0421-0.0921-0.0841-0.13817-0.12613-0.0154-0.014-0.0307-0.0421-0.0614-0.0561-0.0461-0.0421-0.0461-0.0981-0.0307 0.014-0.0921 0.042-0.16887 0.0841-0.26099 0.14014 0 0-0.0307-0.028-0.0307-0.014 0.0307-0.0841 0.0614-0.15417 0.10746-0.23826 0.0461 0 0.0921 0.014 0.13818 0.014-0.0154-0.014-0.0307-0.014-0.0461-0.028-0.10747-0.0701-0.26099 0.028-0.26099 0.14014 0.0461 1.3174 0.13817 2.6207 0.26099 3.9241 0.10746 1.2193 0.21493 2.4666 0.4452 3.6718 0.21494 1.1492 0.64479 2.2283 1.351 3.2093 0.70619 0.95299 1.5966 1.7658 2.5792 2.4806 0.56802 0.42044 1.1821 0.79883 1.7962 1.1632 0.66014 0.39241 1.3203 0.78482 1.9958 1.1492 0.0461 0.028 0.12281 0.028 0.16887 0 0.59872-0.32233 1.1668-0.67269 1.7501-1.009 0.56803-0.32234 1.1207-0.6727 1.658-1.0511 0.99789-0.68671 1.9037-1.4715 2.6406-2.3825 0.75225-0.92496 1.2589-1.962 1.5045-3.0832 0.27634-1.1912 0.36845-2.4245 0.47592-3.6298 0.15351-1.4715 0.24563-2.9431 0.30703-4.4146 0-0.11211-0.15352-0.21022-0.26098-0.14014-0.0154 0.014-0.0307 0.014-0.0461 0.028 0.0461 0 0.0921-0.014 0.13816-0.014 0.0307 0.0841 0.0614 0.15416 0.10747 0.23825 0-0.014-0.0154 0.014-0.0307 0.014-0.0921-0.042-0.16888-0.0841-0.26099-0.14014 0-0.11212 0-0.0421-0.0614 0.014-0.0461 0.0421-0.0768 0.0701-0.12281 0.11212-0.0921 0.0701-0.19958 0.14015-0.30705 0.1962-0.23027 0.12613-0.47591 0.19621-0.72154 0.26628-0.53732 0.12613-1.09 0.16818-1.6427 0.16818-1.1975-0.014-2.3949-0.22424-3.4542-0.74278-0.66014-0.32233-1.2282-0.74277-1.6887-1.2753-0.13817-0.14015-0.3838 0.0841-0.24563 0.23824z"/>
    <path d="m110.7 154.01c0.69084 0 1.4738-0.028 2.0879-0.35037 0.24563-0.12613 0.47591-0.32233 0.53732-0.57459 0.0153-0.0701 0.0307-0.14015-0.0154-0.19621-0.0307-0.0561-0.10747-0.0981-0.15353-0.12613-0.10746-0.0841-0.21492-0.16817-0.32239-0.25226-0.19958-0.15416-0.39915-0.32234-0.62943-0.42044-0.39916-0.16817-0.81366-0.15416-1.2435-0.15416h-2.3949c-0.0921 0-0.16887 0.0701-0.16887 0.15416v1.7658c0 0.0841 0.0768 0.15416 0.16887 0.15416h2.1339c0.21493 0 0.23029-0.30833 0-0.30833h-2.1339c0.0614 0.0561 0.12282 0.11212 0.16887 0.15417v-1.7658c-0.0614 0.0561-0.12281 0.11212-0.16887 0.15416h2.6252c0.27634 0 0.53732 0 0.79831 0.0981 0.16887 0.0701 0.30704 0.15416 0.44521 0.26628 0.19957 0.15416 0.39915 0.32234 0.61408 0.4765-0.0154-0.0421-0.0307-0.0701-0.0461-0.11212v0.0421c-0.0154 0.014 0.0154-0.0421 0 0 0 0.014-0.0154 0.028-0.0154 0.056-0.0154 0.0421 0.0154 0-0.0154 0.0421-0.0154 0.028-0.0307 0.0561-0.0461 0.0701-0.0154 0.028-0.0921 0.0981-0.13817 0.12612-0.18423 0.14015-0.42986 0.21023-0.66014 0.26628-0.46056 0.11212-0.93647 0.12613-1.4124 0.12613-0.24563 0-0.24563 0.30833-0.0154 0.30833z"/>
    <path d="m113.39 148.21c-0.53732-0.16817-1.0593-0.37839-1.6273-0.37839-0.78296-0.014-1.5659-0.028-2.3489-0.028-0.29169 0-0.56802-0.014-0.85971-0.014-0.0921 0-0.16887 0.0701-0.16887 0.15416v1.6397c0 0.0841 0.0768 0.15417 0.16887 0.15417 0.7369-0.014 1.4584-0.0421 2.1954-0.0561 0.21492 0 0.46056 0.014 0.66013-0.0701 0.3838-0.15416 0.75225-0.37839 1.1054-0.58861 0.30704-0.18219 0.61408-0.36438 0.92112-0.54656 0.18423-0.11212 0.0154-0.3784-0.16887-0.26628-0.61408 0.37839-1.2435 0.7708-1.9036 1.0791-0.0614 0.028-0.10747 0.0421-0.13817 0.0561-0.0614 0.014 0.0307 0-0.0307 0-0.10746 0-0.21493 0-0.33775 0.014-0.44521 0.014-0.89042 0.028-1.3356 0.028-0.3224 0.014-0.62944 0.014-0.95183 0.028 0.0614 0.0561 0.12281 0.11212 0.16887 0.15417v-1.6397c-0.0614 0.0561-0.12282 0.11212-0.16887 0.15416 0.62943 0 1.2589 0.014 1.8883 0.028 0.67549 0.014 1.4124-0.0561 2.0725 0.14014 0.26098 0.0841 0.52197 0.16818 0.78296 0.23825 0.19957 0.0841 0.29169-0.22423 0.0767-0.28029z"/>
    <path d="m105.97 156.01c0.27634-0.23824 0.58338-0.44847 0.72155-0.78482 0.0768-0.18219 0.0768-0.37839 0.0768-0.57459v-1.4996-4.5688-1.1492c0-0.0561-0.0307-0.11212-0.0921-0.14014-0.50662-0.22424-0.95183-0.65869-1.0746-1.1772-0.0768 0.0701-0.13816 0.12613-0.21492 0.1962 0.33774 0.0841 0.70619 0.11212 1.0593 0.12614 0.42986 0.028 0.87507 0.0421 1.3049 0.0421 0.95183 0.014 1.9037 0.014 2.8555 0.028 0.73689 0.014 1.4738 0.014 2.1953 0.028 0.61408 0.014 1.0746 0.35036 1.5199 0.68671 0.49126 0.36439 0.98253 0.75679 1.3663 1.2193 0.0154 0.028 0.0154 0.042 0.0154 0.028 0.0461-0.12614-0.0768-0.014-0.10746 0.014-0.13817 0.11212-0.27634 0.22424-0.42986 0.33635-0.30704 0.22424-0.62944 0.43445-0.95183 0.65869-0.33774 0.22423-0.67549 0.43445-1.0132 0.64467-0.0921 0.056-0.12282 0.16817-0.0307 0.25226 0.6755 0.5746 1.3663 1.1632 2.0418 1.7378 0.13817 0.11211 0.26098 0.22423 0.39915 0.33635 0.10747 0.0981 0.10747 0.18219 0.0921 0.32233-0.0768 0.63066-0.42987 1.3034-0.87507 1.7798-0.56803 0.61665-1.3356 1.0651-2.2107 1.1912-0.46056 0.0701-0.93648 0.0981-1.4124 0.0981-0.85971 0-1.7194-0.028-2.5638-0.056-0.93647-0.014-1.8729-0.0421-2.8248-0.0561-0.21493 0-0.21493 0.30832 0 0.30832 0.82901 0.014 1.658 0.028 2.487 0.0421 0.95183 0.014 1.9036 0.042 2.8708 0.056 0.4145 0 0.84436-0.028 1.2742-0.0701 0.3838-0.042 0.7676-0.11211 1.136-0.26628 0.44521-0.1962 0.85971-0.44846 1.2128-0.77079 0.58337-0.51854 0.95182-1.1492 1.1668-1.8499 0.0768-0.25226 0.18422-0.60262 0.0307-0.84087-0.0461-0.0841-0.15352-0.15417-0.23028-0.22424-0.7676-0.64467-1.5198-1.2893-2.2875-1.934-0.0154-0.014-0.0461-0.028-0.0614-0.0561-0.0154 0.0841-0.0307 0.16818-0.0307 0.25227 0.87507-0.54658 1.8115-1.0931 2.5638-1.7658 0.26098-0.22423-0.0614-0.47649-0.23028-0.65868-0.26099-0.25227-0.52198-0.49051-0.79831-0.71475-0.33775-0.28029-0.70619-0.56058-1.09-0.7708-0.24563-0.14015-0.52197-0.23825-0.81366-0.26628-0.36845-0.028-0.73689-0.014-1.1053-0.014-1.2128-0.014-2.4103-0.0421-3.6231-0.0421-0.49126 0-0.99789-0.014-1.4892-0.028-0.42986-0.014-0.89042-0.028-1.3203-0.12613-0.13817-0.028-0.24563 0.0841-0.21493 0.1962 0.13817 0.58861 0.64479 1.1072 1.2282 1.3594-0.0307-0.0421-0.0614-0.0841-0.0921-0.14015v7.3717c-0.0154 0.46248-0.36845 0.68671-0.7062 0.98102-0.13817 0.16817 0.10746 0.3924 0.27634 0.25226z"/>
  </g>
</svg>
